<svg width="505" height="594" viewBox="0 0 505 594" fill="none" xmlns="http://www.w3.org/2000/svg">
<rect x="1" y="1" width="500.883" height="22.0388" fill="#344B60"/>
<rect x="0.5" y="0.5" width="501.883" height="23.0388" stroke="black" stroke-opacity="0.1"/>
<mask id="path-3-outside-1_317_88" maskUnits="userSpaceOnUse" x="330.512" y="146.76" width="67" height="246" fill="black">
<rect fill="white" x="330.512" y="146.76" width="67" height="246"/>
<path fill-rule="evenodd" clip-rule="evenodd" d="M331.512 217.924V389.404L395.579 320.24V148.76L395.578 148.761L331.512 217.924Z"/>
</mask>
<path fill-rule="evenodd" clip-rule="evenodd" d="M331.512 217.924V389.404L395.579 320.24V148.76L395.578 148.761L331.512 217.924Z" fill="#344B60"/>
<path d="M331.512 217.924L330.779 217.245L330.512 217.532V217.924H331.512ZM331.512 389.404H330.512V391.955L332.246 390.084L331.512 389.404ZM395.579 320.24L396.312 320.919L396.579 320.632V320.24H395.579ZM395.579 148.76H396.579V147.735L395.553 147.761L395.579 148.76ZM395.578 148.761L395.553 147.761L395.131 147.772L394.844 148.081L395.578 148.761ZM330.512 217.924V389.404H332.512V217.924H330.512ZM332.246 390.084L396.312 320.919L394.845 319.56L330.779 388.725L332.246 390.084ZM396.579 320.24V148.76H394.579V320.24H396.579ZM395.553 147.761L395.553 147.761L395.603 149.76L395.604 149.76L395.553 147.761ZM394.844 148.081L330.779 217.245L332.246 218.604L396.312 149.44L394.844 148.081Z" fill="black" fill-opacity="0.1" mask="url(#path-3-outside-1_317_88)"/>
<mask id="path-5-outside-2_317_88" maskUnits="userSpaceOnUse" x="106.187" y="148.261" width="67" height="446" fill="black">
<rect fill="white" x="106.187" y="148.261" width="67" height="446"/>
<path fill-rule="evenodd" clip-rule="evenodd" d="M107.187 218.051V590.926L171.3 521.711V149.261H170.906L107.187 218.051Z"/>
</mask>
<path fill-rule="evenodd" clip-rule="evenodd" d="M107.187 218.051V590.926L171.3 521.711V149.261H170.906L107.187 218.051Z" fill="#344B60"/>
<path d="M107.187 218.051L106.454 217.372L106.187 217.659V218.051H107.187ZM107.187 590.926H106.187V593.477L107.921 591.606L107.187 590.926ZM171.3 521.711L172.034 522.391L172.3 522.103V521.711H171.3ZM171.3 149.261H172.3V148.261H171.3V149.261ZM170.906 149.261V148.261H170.47L170.173 148.582L170.906 149.261ZM106.187 218.051V590.926H108.187V218.051H106.187ZM107.921 591.606L172.034 522.391L170.567 521.032L106.454 590.247L107.921 591.606ZM172.3 521.711V149.261H170.3V521.711H172.3ZM171.3 148.261H170.906V150.261H171.3V148.261ZM170.173 148.582L106.454 217.372L107.921 218.731L171.64 149.941L170.173 148.582Z" fill="black" fill-opacity="0.1" mask="url(#path-5-outside-2_317_88)"/>
<mask id="path-7-outside-3_317_88" maskUnits="userSpaceOnUse" x="218.408" y="146.76" width="67" height="346" fill="black">
<rect fill="white" x="218.408" y="146.76" width="67" height="346"/>
<path fill-rule="evenodd" clip-rule="evenodd" d="M219.408 217.924V489.341L283.475 420.177V148.76L283.474 148.761L219.408 217.924Z"/>
</mask>
<path fill-rule="evenodd" clip-rule="evenodd" d="M219.408 217.924V489.341L283.475 420.177V148.76L283.474 148.761L219.408 217.924Z" fill="#334A5F" fill-opacity="0.5"/>
<path d="M219.408 217.924L218.675 217.245L218.408 217.533V217.924H219.408ZM219.408 489.341H218.408V491.892L220.142 490.021L219.408 489.341ZM283.475 420.177L284.208 420.856L284.475 420.569V420.177H283.475ZM283.475 148.76H284.475V147.732L283.447 147.761L283.475 148.76ZM283.474 148.761L283.446 147.761L283.026 147.773L282.741 148.081L283.474 148.761ZM218.408 217.924V489.341H220.408V217.924H218.408ZM220.142 490.021L284.208 420.856L282.741 419.497L218.675 488.661L220.142 490.021ZM284.475 420.177V148.76H282.475V420.177H284.475ZM283.447 147.761L283.446 147.761L283.503 149.76L283.503 149.76L283.447 147.761ZM282.741 148.081L218.675 217.245L220.142 218.604L284.208 149.44L282.741 148.081Z" fill="black" fill-opacity="0.1" mask="url(#path-7-outside-3_317_88)"/>
<mask id="path-9-outside-4_317_88" maskUnits="userSpaceOnUse" x="0" y="36.8905" width="505" height="72" fill="black">
<rect fill="white" y="36.8905" width="505" height="72"/>
<path fill-rule="evenodd" clip-rule="evenodd" d="M437.817 107.891H65.0656L1 38.727V38.726H501.883L437.817 107.891Z"/>
</mask>
<path fill-rule="evenodd" clip-rule="evenodd" d="M437.817 107.891H65.0656L1 38.727V38.726H501.883L437.817 107.891Z" fill="#344B60"/>
<path d="M65.0656 107.891V108.891H64.6288L64.332 108.57L65.0656 107.891ZM437.817 107.891L438.55 108.57L438.254 108.891H437.817V107.891ZM1 38.727L0.266373 39.4065L0 39.1189V38.727H1ZM1 38.726H0V37.726H1V38.726ZM501.883 38.726V37.726H504.172L502.616 39.4056L501.883 38.726ZM65.0656 106.891H437.817V108.891H65.0656V106.891ZM1.73363 38.0474L65.7992 107.211L64.332 108.57L0.266373 39.4065L1.73363 38.0474ZM2 38.726V38.727H0V38.726H2ZM501.883 39.726H1V37.726H501.883V39.726ZM502.616 39.4056L438.55 108.57L437.083 107.211L501.149 38.0465L502.616 39.4056Z" fill="black" fill-opacity="0.1" mask="url(#path-9-outside-4_317_88)"/>
</svg>
